<svg width="18" height="18" viewBox="0 0 18 18" fill="none" xmlns="http://www.w3.org/2000/svg">
<path d="M17.3322 9.18477C17.3423 8.61167 17.2818 8.03857 17.1541 7.48193H9.16919V10.5747H13.8573C13.6792 11.6715 13.0507 12.6464 12.1198 13.2788L12.103 13.3809L14.6269 15.2979L14.8016 15.3143C16.4047 13.8618 17.3322 11.7242 17.3322 9.18477Z" fill="#4285F4"/>
<path d="M9.16916 17.3333C11.4645 17.3333 13.3935 16.5922 14.8016 15.3143L12.1198 13.2755C11.2494 13.8486 10.2177 14.1384 9.17252 14.1088C6.96793 14.0956 5.01875 12.6991 4.33318 10.6438L4.23236 10.6537L1.60769 12.6431L1.57408 12.7353C3.01244 15.558 5.95301 17.3366 9.16916 17.3333Z" fill="#34A853"/>
<path d="M4.32982 10.6471C4.14498 10.1168 4.04752 9.56021 4.04752 8.99698C4.05088 8.43706 4.14498 7.88042 4.32309 7.34684L4.31973 7.23815L1.66146 5.21582L1.57408 5.25534C0.364243 7.61034 0.364243 10.3836 1.57408 12.7386L4.32982 10.6471Z" fill="#FBBC05"/>
<path d="M9.16918 3.88848C10.3891 3.86872 11.5653 4.31337 12.4559 5.13021L14.8554 2.8345C13.3162 1.41821 11.2763 0.644193 9.16582 0.667249C5.94968 0.667249 3.0091 2.44255 1.56738 5.26195L4.3164 7.35345C5.00869 5.29819 6.96123 3.90166 9.16918 3.88848Z" fill="#EB4335"/>
</svg>
