<svg width="512" height="512" viewBox="0 0 512 512" fill="none" xmlns="http://www.w3.org/2000/svg">
<path d="M2.38021 377.956H44.7199V197.717H2.38021V377.956ZM23.4652 174.08C36.7283 174.08 47.1005 163.878 47.1005 151.125C47.1005 138.202 36.7283 128 23.4652 128C10.3723 128 0 138.203 0 151.125C0 163.878 10.3723 174.08 23.4652 174.08ZM185.688 128.509C114.103 128.509 69.2106 177.31 69.2106 255.359C69.2106 333.408 114.099 382.039 185.688 382.039C257.103 382.039 301.995 333.408 301.995 255.359C301.995 177.31 257.107 128.509 185.688 128.509ZM185.688 165.917C229.387 165.917 257.272 200.606 257.272 255.358C257.272 309.94 229.386 344.629 185.688 344.629C141.818 344.629 114.103 309.941 114.103 255.358C114.103 200.606 141.819 165.917 185.688 165.917ZM319.855 308.922C321.726 354.153 358.794 382.039 415.246 382.039C474.591 382.039 512 352.792 512 306.201C512 269.643 490.915 249.068 441.094 237.676L412.868 231.215C382.771 224.073 370.358 214.551 370.358 198.227C370.358 177.823 389.063 164.22 416.779 164.22C444.835 164.22 464.048 177.993 466.089 200.948H507.919C506.898 157.758 471.19 128.51 417.12 128.51C363.726 128.51 325.807 157.927 325.807 201.457C325.807 236.485 347.232 258.251 392.46 268.624L424.257 276.106C455.205 283.417 467.787 293.62 467.787 311.304C467.787 331.708 447.212 346.331 417.628 346.331C387.701 346.331 365.087 331.538 362.367 308.923H319.857L319.855 308.922Z" fill="black"/>
</svg>
