<svg width="64" height="143" viewBox="0 0 64 143" fill="none" xmlns="http://www.w3.org/2000/svg">
<g clip-path="url(#clip0_308_2658)">
<path fill-rule="evenodd" clip-rule="evenodd" d="M35.0536 142.317L31.2702 141.025C31.2702 141.025 31.7321 121.738 24.811 120.354C20.197 115.001 25.5493 -106.659 42.1595 119.615C42.1595 119.615 36.4385 122.476 35.4232 127.367C34.3154 132.166 35.0536 142.317 35.0536 142.317Z" fill="white"/>
<path fill-rule="evenodd" clip-rule="evenodd" d="M35.0536 142.317L31.2702 141.025C31.2702 141.025 31.7321 121.738 24.811 120.354C20.197 115.001 25.5493 -106.659 42.1595 119.615C42.1595 119.615 36.4385 122.476 35.4232 127.367C34.3154 132.166 35.0536 142.317 35.0536 142.317Z" fill="#A6A385"/>
<path fill-rule="evenodd" clip-rule="evenodd" d="M37.0842 123.676C37.0842 123.676 70.2131 101.897 62.4614 56.5867C54.9869 23.6426 37.3605 12.8457 35.423 8.69273C33.3008 5.73988 31.27 0.572388 31.27 0.572388L32.6549 92.2074C32.6549 92.2998 29.7936 120.261 37.0842 123.676Z" fill="white"/>
<path fill-rule="evenodd" clip-rule="evenodd" d="M37.0842 123.676C37.0842 123.676 70.2131 101.897 62.4614 56.5867C54.9869 23.6426 37.3605 12.8457 35.423 8.69273C33.3008 5.73988 31.27 0.572388 31.27 0.572388L32.6549 92.2074C32.6549 92.2998 29.7936 120.261 37.0842 123.676Z" fill="#499D4A"/>
<path fill-rule="evenodd" clip-rule="evenodd" d="M29.3326 124.875C29.3326 124.875 -1.76643 103.65 0.0795317 66.2768C1.83225 28.9025 23.7956 10.5387 28.0401 7.21633C30.809 4.26348 30.9014 3.15573 31.0862 0.202881C33.0237 4.35587 32.655 62.3086 32.9313 69.1372C33.7619 95.4375 31.4549 119.893 29.3326 124.875Z" fill="white"/>
<path fill-rule="evenodd" clip-rule="evenodd" d="M29.3326 124.875C29.3326 124.875 -1.76643 103.65 0.0795317 66.2768C1.83225 28.9025 23.7956 10.5387 28.0401 7.21633C30.809 4.26348 30.9014 3.15573 31.0862 0.202881C33.0237 4.35587 32.655 62.3086 32.9313 69.1372C33.7619 95.4375 31.4549 119.893 29.3326 124.875Z" fill="#58AA50"/>
</g>
<defs>
<clipPath id="clip0_308_2658">
<rect width="64" height="143" fill="white"/>
</clipPath>
</defs>
</svg>
