<svg width="512" height="512" viewBox="0 0 512 512" fill="none" xmlns="http://www.w3.org/2000/svg">
<g id="Type=Default">
<path id="Shape" fill-rule="evenodd" clip-rule="evenodd" d="M68.2062 499.125C68.2062 499.125 68.9587 380.969 68.9587 260.854C68.9587 28.201 49.3549 10.8725 153.743 10.8725H444.301V346.453C444.301 456.923 464.951 500.199 348.857 500.199C232.762 500.199 68.2062 499.125 68.2062 499.125Z" fill="#A62C39"/>
<g id="Group">
<path id="Shape_2" fill-rule="evenodd" clip-rule="evenodd" d="M307.765 54.7625C307.765 54.7625 326.384 58.4862 342.52 85.7934C358.656 113.101 444.301 325.352 444.301 325.352V152.82L364.862 23.7316L387.204 51.0388L429.406 16.2841L374.792 12.5604L307.765 54.7625Z" fill="url(#paint0_linear_308_3957)"/>
</g>
<g id="Group_2">
<path id="Shape_3" opacity="0.668224" fill-rule="evenodd" clip-rule="evenodd" d="M142.68 13.8016C142.68 13.8016 265.563 95.7233 325.142 111.859C384.722 127.995 445.542 145.421 445.542 145.421L305.283 492.919L366.103 495.402L445.542 300.548L443.06 12.5604L142.68 13.8016Z" fill="url(#paint1_radial_308_3957)"/>
<path id="Shape_4" fill-rule="evenodd" clip-rule="evenodd" d="M256.874 379.967L381.751 499.997L146.404 497.884C146.404 497.884 138.957 422.169 141.439 382.449C143.922 342.73 156.334 342.73 156.334 342.73L256.874 379.967Z" fill="white" fill-opacity="0.439614"/>
</g>
<g id="Group_3">
<path id="Shape_5" fill-rule="evenodd" clip-rule="evenodd" d="M374.792 500.367L259.357 381.208L153.852 341.488L71.9299 159.026L158.817 13.8017L103.156 13.8017L76.8948 33.6615L68.2062 51.0388L68.2062 500.367H374.792Z" fill="black" fill-opacity="0.362319"/>
<path id="Shape_6" opacity="0.5" fill-rule="evenodd" clip-rule="evenodd" d="M445.542 310.457C445.542 310.457 328.866 347.695 259.357 382.449C189.847 417.204 152.61 501.608 152.61 501.608C152.61 501.608 301.559 494.161 357.414 496.643C413.27 499.125 439.336 499.125 444.301 420.928C449.266 342.73 445.542 310.457 445.542 310.457Z" fill="#83222D"/>
</g>
<g id="Group_4">
<path id="Shape_7" fill-rule="evenodd" clip-rule="evenodd" d="M104.171 384.587V457.896H122.869V438.802L139.886 455.819H168.576L145.822 433.064C145.822 433.064 162.192 432.8 163.432 409.122C163.432 387.401 147.042 384.587 128.113 384.587H104.171ZM123.76 404.472H139.886V417.532H123.76V404.472Z" fill="white"/>
<path id="Shape_8" fill-rule="evenodd" clip-rule="evenodd" d="M204.687 384.884C194.449 384.826 180.251 385.775 180.251 405.066V456.017H199.444V443.551H218.043V455.72H237.335V402.296C237.335 385.539 218.718 384.884 208.743 384.884C207.496 384.884 206.149 384.893 204.687 384.884ZM199.74 403.285H217.746V423.369H199.74V403.285Z" fill="white"/>
<rect id="Rectangle-path" x="256.564" y="384.932" width="19.8598" height="70.1299" fill="white"/>
<path id="Shape_9" fill-rule="evenodd" clip-rule="evenodd" d="M297.214 385.863V455.992H345.002V437.374H316.764V385.552L297.214 385.863Z" fill="white"/>
<path id="Shape_10" fill-rule="evenodd" clip-rule="evenodd" d="M408.305 385.242V404.171H376.343V410.998H389.997C397.134 410.998 412.029 410.687 412.029 433.03C412.029 455.372 401.789 456.613 380.998 456.613H355.863V439.546H384.722C393.41 439.546 393.89 436.718 393.89 434.253C393.89 431.788 389.447 430.642 380.413 430.642C371.378 430.642 354.622 426.203 354.622 408.825C354.622 391.448 363.31 384.932 380.688 384.932C398.065 384.932 408.305 385.242 408.305 385.242V385.242Z" fill="white"/>
</g>
<g id="Group_5">
<path id="Shape_11" fill-rule="evenodd" clip-rule="evenodd" d="M121.579 363.831H286.664C286.664 363.831 250.047 280.668 259.357 204.332C268.666 127.996 328.866 93.2408 363 89.5171C397.134 85.7934 415.753 106.894 415.753 106.894L423.2 95.7233C423.2 95.7233 374.171 46.0738 312.109 51.6594C250.047 57.245 207.225 98.2058 180.538 147.855C153.852 197.505 138.336 232.259 127.786 284.391C117.235 336.523 121.579 363.831 121.579 363.831Z" fill="white"/>
<path id="Shape_12" fill-rule="evenodd" clip-rule="evenodd" d="M88.6866 280.668L120.959 283.15L115.373 315.422L84.9629 311.699L88.6866 280.668Z" fill="white"/>
<path id="Shape_13" fill-rule="evenodd" clip-rule="evenodd" d="M139.577 212.4L148.266 188.196L119.718 177.024L110.408 203.09L139.577 212.4Z" fill="white"/>
<path id="Shape_14" fill-rule="evenodd" clip-rule="evenodd" d="M179.918 129.237L196.674 109.377L174.953 95.1027L157.575 114.342L179.918 129.237Z" fill="white"/>
<path id="Shape_15" fill-rule="evenodd" clip-rule="evenodd" d="M223.981 52.28L238.876 70.278L259.357 58.4862L244.462 41.7295L223.981 52.28Z" fill="white"/>
<path id="Shape_16" fill-rule="evenodd" clip-rule="evenodd" d="M296.594 31.7996L300.318 49.7976L325.763 49.1769L323.28 33.0409L296.594 31.7996Z" fill="white"/>
<path id="Shape_17" fill-rule="evenodd" clip-rule="evenodd" d="M382.86 51.0388L382.239 62.2099L399.617 71.5192L403.34 65.9336L382.86 51.0388Z" fill="white"/>
<path id="Shape_18" fill-rule="evenodd" clip-rule="evenodd" d="M379.136 98.8264V108.136L395.893 109.998V102.55L379.136 98.8264Z" fill="white"/>
<path id="Shape_19" fill-rule="evenodd" clip-rule="evenodd" d="M325.763 106.894L333.831 121.789L345.623 112.48L343.14 102.55L325.763 106.894Z" fill="white"/>
<path id="Shape_20" fill-rule="evenodd" clip-rule="evenodd" d="M300.318 126.134L312.73 144.752L305.283 157.785L287.285 137.925L300.318 126.134Z" fill="white"/>
<path id="Shape_21" fill-rule="evenodd" clip-rule="evenodd" d="M275.493 177.645L267.425 193.781L288.526 211.779L293.491 191.299L275.493 177.645Z" fill="white"/>
<path id="Shape_22" fill-rule="evenodd" clip-rule="evenodd" d="M266.804 234.121L265.563 255.843L291.629 267.014L290.388 246.534L266.804 234.121Z" fill="white"/>
<path id="Shape_23" fill-rule="evenodd" clip-rule="evenodd" d="M274.252 311.078L280.458 333.42L313.351 335.282L301.559 311.078H274.252Z" fill="white"/>
</g>
<path id="Shape_24" fill-rule="evenodd" clip-rule="evenodd" d="M72.9549 499.156C72.9563 498.924 72.9563 498.924 72.9633 497.798C72.9729 496.239 72.9729 496.239 72.9872 493.842C73.0129 489.509 73.0416 484.481 73.0725 478.813C73.1607 462.618 73.2489 444.547 73.3312 425.053C73.5663 369.355 73.7075 313.412 73.7075 260.854C73.7075 233.773 73.475 210.123 72.9762 177.033C71.4521 75.9247 72.1851 56.6679 80.6244 38.4967C89.1023 20.2425 105.019 15.6212 153.743 15.6212H444.301L439.552 10.8725V346.453C439.552 356.752 439.664 365.639 439.933 380.607C440.971 438.298 439.694 454.702 430.382 469.907C419.491 487.689 396.044 495.45 348.857 495.45C322.214 495.45 290.873 495.389 255.792 495.275C227.573 495.183 197.661 495.06 166.881 494.913C142.263 494.796 118.492 494.67 96.4574 494.544C88.7452 494.5 81.801 494.46 75.7361 494.423C73.6134 494.41 72.3726 494.402 70.1665 494.389C68.567 494.379 68.567 494.379 68.2363 494.377L72.9549 499.156ZM63.4273 503.844L68.1761 503.874C68.5075 503.876 68.5075 503.876 70.1077 503.886C72.3144 503.9 73.5555 503.907 75.6786 503.92C81.7447 503.957 88.6899 503.998 96.4032 504.042C118.441 504.168 142.215 504.293 166.835 504.411C197.62 504.558 227.537 504.681 255.761 504.772C290.852 504.886 322.203 504.948 348.857 504.948C399.02 504.948 425.407 496.214 438.481 474.867C449.193 457.378 450.509 440.468 449.429 380.436C449.161 365.521 449.05 356.681 449.05 346.453V10.8725V6.12367H444.301H153.743C101.498 6.12367 82.6456 11.5973 72.0106 34.4962C66.6946 45.9423 64.1258 61.7892 63.1939 86.2715C62.4757 105.14 62.5506 115.539 63.4797 177.176C63.9778 210.223 64.2099 233.829 64.2099 260.854C64.2099 313.397 64.0688 369.327 63.8337 425.013C63.7514 444.503 63.6632 462.57 63.5751 478.761C63.5442 484.427 63.5155 489.455 63.4898 493.786C63.4755 496.182 63.4755 496.182 63.4659 497.74C63.459 498.865 63.4273 503.844 63.4273 503.844Z" fill="#5E000E"/>
</g>
<defs>
<linearGradient id="paint0_linear_308_3957" x1="357.793" y1="281.095" x2="447.984" y2="279.379" gradientUnits="userSpaceOnUse">
<stop stop-color="white"/>
<stop offset="1" stop-color="#C0815E"/>
</linearGradient>
<radialGradient id="paint1_radial_308_3957" cx="0" cy="0" r="1" gradientUnits="userSpaceOnUse" gradientTransform="translate(294.111 253.981) scale(153.007 243.934)">
<stop stop-color="white"/>
<stop offset="1" stop-color="#A94436"/>
</radialGradient>
</defs>
</svg>
